<svg xmlns="http://www.w3.org/2000/svg" xmlns:xlink="http://www.w3.org/1999/xlink" width="500" zoomAndPan="magnify" viewBox="0 0 375 374.999991" height="500" preserveAspectRatio="xMidYMid meet" version="1.0"><defs><g/><clipPath id="4812f28dc2"><path d="M 127 126.070312 L 276.9375 126.070312 L 276.9375 168 L 127 168 Z M 127 126.070312 " clip-rule="nonzero"/></clipPath><clipPath id="547145b98e"><path d="M 97.898438 207 L 248 207 L 248 248.753906 L 97.898438 248.753906 Z M 97.898438 207 " clip-rule="nonzero"/></clipPath></defs><g clip-path="url(#4812f28dc2)"><path fill="#000000" d="M 186.265625 140.042969 C 205.183594 140.042969 221.460938 151.34375 228.714844 167.566406 L 277.082031 167.566406 L 235.160156 160.632812 C 234.320312 154.808594 233.007812 149.066406 231.226562 143.476562 C 228.3125 145.453125 225.386719 147.414062 222.46875 149.386719 C 217.269531 140.972656 210.925781 133.367188 203.679688 126.761719 C 202.140625 129.929688 200.589844 133.089844 199.050781 136.257812 C 190.339844 131.574219 181.042969 128.160156 171.464844 126.0625 C 171.71875 129.574219 171.953125 133.085938 172.203125 136.597656 C 162.320312 136.898438 152.5625 138.589844 143.214844 141.5625 C 145.191406 144.476562 147.152344 147.402344 149.125 150.316406 C 141.320312 155.148438 134.207031 160.957031 127.941406 167.566406 L 143.8125 167.566406 C 151.070312 151.34375 167.347656 140.042969 186.265625 140.042969 " fill-opacity="1" fill-rule="nonzero"/></g><path fill="#000000" d="M 186.265625 147.371094 C 171.519531 147.371094 158.679688 155.523438 152 167.5625 L 166.089844 167.5625 C 171.140625 162.195312 178.308594 158.835938 186.265625 158.835938 C 194.21875 158.835938 201.390625 162.195312 206.4375 167.5625 L 220.527344 167.5625 C 213.851562 155.523438 201.007812 147.371094 186.265625 147.371094 " fill-opacity="1" fill-rule="nonzero"/><path fill="#000000" d="M 188.722656 216.144531 C 180.765625 216.144531 173.597656 212.789062 168.546875 207.417969 L 154.457031 207.417969 C 161.136719 219.460938 173.976562 227.613281 188.722656 227.613281 C 203.464844 227.613281 216.308594 219.460938 222.984375 207.417969 L 208.894531 207.417969 C 203.847656 212.789062 196.675781 216.144531 188.722656 216.144531 " fill-opacity="1" fill-rule="nonzero"/><g clip-path="url(#547145b98e)"><path fill="#000000" d="M 188.722656 234.941406 C 169.804688 234.941406 153.527344 223.640625 146.269531 207.417969 L 97.90625 207.417969 L 139.828125 214.351562 C 140.664062 220.175781 141.980469 225.917969 143.761719 231.507812 C 146.675781 229.53125 149.601562 227.570312 152.515625 225.601562 C 157.71875 234.011719 164.058594 241.617188 171.308594 248.222656 C 172.84375 245.054688 174.398438 241.894531 175.9375 238.726562 C 184.648438 243.410156 193.941406 246.824219 203.519531 248.921875 C 203.265625 245.410156 203.03125 241.898438 202.78125 238.386719 C 212.667969 238.085938 222.425781 236.394531 231.769531 233.421875 C 229.792969 230.507812 227.832031 227.582031 225.863281 224.664062 C 233.667969 219.835938 240.78125 214.027344 247.042969 207.417969 L 231.171875 207.417969 C 223.917969 223.640625 207.640625 234.941406 188.722656 234.941406 " fill-opacity="1" fill-rule="nonzero"/></g><g fill="#000000" fill-opacity="1"><g transform="translate(67.535156, 195.374987)"><g><path d="M 16.234375 -7.875 C 16.234375 -5.269531 15.585938 -3.269531 14.296875 -1.875 C 13.003906 -0.476562 11.15625 0.21875 8.75 0.21875 C 6.34375 0.21875 4.492188 -0.476562 3.203125 -1.875 C 1.921875 -3.269531 1.28125 -5.273438 1.28125 -7.890625 C 1.28125 -10.503906 1.925781 -12.5 3.21875 -13.875 C 4.507812 -15.257812 6.363281 -15.953125 8.78125 -15.953125 C 11.1875 -15.953125 13.03125 -15.253906 14.3125 -13.859375 C 15.59375 -12.472656 16.234375 -10.476562 16.234375 -7.875 Z M 4.765625 -7.875 C 4.765625 -6.125 5.097656 -4.800781 5.765625 -3.90625 C 6.429688 -3.019531 7.425781 -2.578125 8.75 -2.578125 C 11.40625 -2.578125 12.734375 -4.34375 12.734375 -7.875 C 12.734375 -11.414062 11.414062 -13.1875 8.78125 -13.1875 C 7.457031 -13.1875 6.457031 -12.738281 5.78125 -11.84375 C 5.101562 -10.945312 4.765625 -9.625 4.765625 -7.875 Z M 4.765625 -7.875 "/></g></g></g><g fill="#000000" fill-opacity="1"><g transform="translate(85.041812, 195.374987)"><g><path d="M 5.3125 -8.734375 L 6.375 -8.734375 C 7.425781 -8.734375 8.203125 -8.90625 8.703125 -9.25 C 9.210938 -9.601562 9.46875 -10.160156 9.46875 -10.921875 C 9.46875 -11.660156 9.207031 -12.1875 8.6875 -12.5 C 8.175781 -12.820312 7.382812 -12.984375 6.3125 -12.984375 L 5.3125 -12.984375 Z M 5.3125 -6.03125 L 5.3125 0 L 1.984375 0 L 1.984375 -15.703125 L 6.546875 -15.703125 C 8.679688 -15.703125 10.257812 -15.3125 11.28125 -14.53125 C 12.3125 -13.757812 12.828125 -12.582031 12.828125 -11 C 12.828125 -10.070312 12.570312 -9.25 12.0625 -8.53125 C 11.550781 -7.8125 10.832031 -7.25 9.90625 -6.84375 C 12.269531 -3.3125 13.8125 -1.03125 14.53125 0 L 10.828125 0 L 7.078125 -6.03125 Z M 5.3125 -6.03125 "/></g></g></g><g fill="#000000" fill-opacity="1"><g transform="translate(99.56267, 195.374987)"><g><path d="M 11.59375 0 L 10.453125 -3.734375 L 4.734375 -3.734375 L 3.59375 0 L 0 0 L 5.546875 -15.765625 L 9.609375 -15.765625 L 15.171875 0 Z M 9.65625 -6.53125 C 8.601562 -9.914062 8.007812 -11.828125 7.875 -12.265625 C 7.75 -12.710938 7.65625 -13.066406 7.59375 -13.328125 C 7.351562 -12.410156 6.675781 -10.144531 5.5625 -6.53125 Z M 9.65625 -6.53125 "/></g></g></g><g fill="#000000" fill-opacity="1"><g transform="translate(114.73869, 195.374987)"><g><path d="M 15.90625 0 L 11.671875 0 L 4.84375 -11.875 L 4.75 -11.875 C 4.882812 -9.78125 4.953125 -8.285156 4.953125 -7.390625 L 4.953125 0 L 1.984375 0 L 1.984375 -15.703125 L 6.171875 -15.703125 L 13 -3.9375 L 13.078125 -3.9375 C 12.960938 -5.976562 12.90625 -7.421875 12.90625 -8.265625 L 12.90625 -15.703125 L 15.90625 -15.703125 Z M 15.90625 0 "/></g></g></g><g fill="#000000" fill-opacity="1"><g transform="translate(132.621261, 195.374987)"><g><path d="M 7.9375 -8.8125 L 14.171875 -8.8125 L 14.171875 -0.671875 C 13.160156 -0.347656 12.207031 -0.117188 11.3125 0.015625 C 10.425781 0.148438 9.515625 0.21875 8.578125 0.21875 C 6.210938 0.21875 4.40625 -0.476562 3.15625 -1.875 C 1.90625 -3.269531 1.28125 -5.269531 1.28125 -7.875 C 1.28125 -10.40625 2.003906 -12.378906 3.453125 -13.796875 C 4.898438 -15.222656 6.910156 -15.9375 9.484375 -15.9375 C 11.097656 -15.9375 12.648438 -15.613281 14.140625 -14.96875 L 13.046875 -12.296875 C 11.898438 -12.867188 10.707031 -13.15625 9.46875 -13.15625 C 8.03125 -13.15625 6.875 -12.671875 6 -11.703125 C 5.132812 -10.742188 4.703125 -9.445312 4.703125 -7.8125 C 4.703125 -6.101562 5.050781 -4.800781 5.75 -3.90625 C 6.445312 -3.007812 7.460938 -2.5625 8.796875 -2.5625 C 9.492188 -2.5625 10.203125 -2.628906 10.921875 -2.765625 L 10.921875 -6.046875 L 7.9375 -6.046875 Z M 7.9375 -8.8125 "/></g></g></g><g fill="#000000" fill-opacity="1"><g transform="translate(148.549102, 195.374987)"><g><path d="M 11.015625 0 L 1.984375 0 L 1.984375 -15.703125 L 11.015625 -15.703125 L 11.015625 -12.984375 L 5.3125 -12.984375 L 5.3125 -9.53125 L 10.625 -9.53125 L 10.625 -6.796875 L 5.3125 -6.796875 L 5.3125 -2.75 L 11.015625 -2.75 Z M 11.015625 0 "/></g></g></g><g fill="#000000" fill-opacity="1"><g transform="translate(160.868208, 195.374987)"><g><path d="M 11.59375 0 L 10.453125 -3.734375 L 4.734375 -3.734375 L 3.59375 0 L 0 0 L 5.546875 -15.765625 L 9.609375 -15.765625 L 15.171875 0 Z M 9.65625 -6.53125 C 8.601562 -9.914062 8.007812 -11.828125 7.875 -12.265625 C 7.75 -12.710938 7.65625 -13.066406 7.59375 -13.328125 C 7.351562 -12.410156 6.675781 -10.144531 5.5625 -6.53125 Z M 9.65625 -6.53125 "/></g></g></g><g fill="#000000" fill-opacity="1"><g transform="translate(176.044228, 195.374987)"><g><path d="M 5.3125 -8.734375 L 6.375 -8.734375 C 7.425781 -8.734375 8.203125 -8.90625 8.703125 -9.25 C 9.210938 -9.601562 9.46875 -10.160156 9.46875 -10.921875 C 9.46875 -11.660156 9.207031 -12.1875 8.6875 -12.5 C 8.175781 -12.820312 7.382812 -12.984375 6.3125 -12.984375 L 5.3125 -12.984375 Z M 5.3125 -6.03125 L 5.3125 0 L 1.984375 0 L 1.984375 -15.703125 L 6.546875 -15.703125 C 8.679688 -15.703125 10.257812 -15.3125 11.28125 -14.53125 C 12.3125 -13.757812 12.828125 -12.582031 12.828125 -11 C 12.828125 -10.070312 12.570312 -9.25 12.0625 -8.53125 C 11.550781 -7.8125 10.832031 -7.25 9.90625 -6.84375 C 12.269531 -3.3125 13.8125 -1.03125 14.53125 0 L 10.828125 0 L 7.078125 -6.03125 Z M 5.3125 -6.03125 "/></g></g></g><g fill="#000000" fill-opacity="1"><g transform="translate(190.565086, 195.374987)"><g/></g></g><g fill="#000000" fill-opacity="1"><g transform="translate(196.278915, 195.374987)"><g><path d="M 1.984375 0 L 1.984375 -15.703125 L 5.3125 -15.703125 L 5.3125 0 Z M 1.984375 0 "/></g></g></g><g fill="#000000" fill-opacity="1"><g transform="translate(203.560824, 195.374987)"><g><path d="M 15.90625 0 L 11.671875 0 L 4.84375 -11.875 L 4.75 -11.875 C 4.882812 -9.78125 4.953125 -8.285156 4.953125 -7.390625 L 4.953125 0 L 1.984375 0 L 1.984375 -15.703125 L 6.171875 -15.703125 L 13 -3.9375 L 13.078125 -3.9375 C 12.960938 -5.976562 12.90625 -7.421875 12.90625 -8.265625 L 12.90625 -15.703125 L 15.90625 -15.703125 Z M 15.90625 0 "/></g></g></g><g fill="#000000" fill-opacity="1"><g transform="translate(221.443396, 195.374987)"><g><path d="M 15 -8 C 15 -5.414062 14.265625 -3.4375 12.796875 -2.0625 C 11.328125 -0.6875 9.203125 0 6.421875 0 L 1.984375 0 L 1.984375 -15.703125 L 6.90625 -15.703125 C 9.46875 -15.703125 11.457031 -15.023438 12.875 -13.671875 C 14.289062 -12.316406 15 -10.425781 15 -8 Z M 11.546875 -7.921875 C 11.546875 -11.296875 10.054688 -12.984375 7.078125 -12.984375 L 5.3125 -12.984375 L 5.3125 -2.75 L 6.734375 -2.75 C 9.941406 -2.75 11.546875 -4.472656 11.546875 -7.921875 Z M 11.546875 -7.921875 "/></g></g></g><g fill="#000000" fill-opacity="1"><g transform="translate(237.725659, 195.374987)"><g><path d="M 14.765625 -15.703125 L 14.765625 -5.546875 C 14.765625 -4.378906 14.503906 -3.359375 13.984375 -2.484375 C 13.460938 -1.617188 12.710938 -0.953125 11.734375 -0.484375 C 10.753906 -0.015625 9.59375 0.21875 8.25 0.21875 C 6.226562 0.21875 4.660156 -0.296875 3.546875 -1.328125 C 2.429688 -2.367188 1.875 -3.789062 1.875 -5.59375 L 1.875 -15.703125 L 5.1875 -15.703125 L 5.1875 -6.09375 C 5.1875 -4.882812 5.429688 -3.992188 5.921875 -3.421875 C 6.410156 -2.859375 7.21875 -2.578125 8.34375 -2.578125 C 9.425781 -2.578125 10.210938 -2.859375 10.703125 -3.421875 C 11.191406 -3.992188 11.4375 -4.890625 11.4375 -6.109375 L 11.4375 -15.703125 Z M 14.765625 -15.703125 "/></g></g></g><g fill="#000000" fill-opacity="1"><g transform="translate(254.351611, 195.374987)"><g><path d="M 11.25 -4.359375 C 11.25 -2.941406 10.738281 -1.820312 9.71875 -1 C 8.695312 -0.1875 7.273438 0.21875 5.453125 0.21875 C 3.773438 0.21875 2.296875 -0.0976562 1.015625 -0.734375 L 1.015625 -3.828125 C 2.066406 -3.347656 2.957031 -3.007812 3.6875 -2.8125 C 4.425781 -2.625 5.101562 -2.53125 5.71875 -2.53125 C 6.445312 -2.53125 7.003906 -2.671875 7.390625 -2.953125 C 7.785156 -3.234375 7.984375 -3.648438 7.984375 -4.203125 C 7.984375 -4.503906 7.894531 -4.773438 7.71875 -5.015625 C 7.550781 -5.253906 7.300781 -5.484375 6.96875 -5.703125 C 6.632812 -5.929688 5.957031 -6.289062 4.9375 -6.78125 C 3.96875 -7.226562 3.242188 -7.660156 2.765625 -8.078125 C 2.285156 -8.492188 1.898438 -8.976562 1.609375 -9.53125 C 1.328125 -10.082031 1.1875 -10.726562 1.1875 -11.46875 C 1.1875 -12.851562 1.65625 -13.941406 2.59375 -14.734375 C 3.539062 -15.535156 4.847656 -15.9375 6.515625 -15.9375 C 7.328125 -15.9375 8.101562 -15.835938 8.84375 -15.640625 C 9.582031 -15.441406 10.359375 -15.171875 11.171875 -14.828125 L 10.09375 -12.234375 C 9.257812 -12.578125 8.566406 -12.816406 8.015625 -12.953125 C 7.472656 -13.085938 6.9375 -13.15625 6.40625 -13.15625 C 5.769531 -13.15625 5.285156 -13.007812 4.953125 -12.71875 C 4.617188 -12.425781 4.453125 -12.039062 4.453125 -11.5625 C 4.453125 -11.269531 4.519531 -11.015625 4.65625 -10.796875 C 4.789062 -10.578125 5.003906 -10.363281 5.296875 -10.15625 C 5.597656 -9.957031 6.300781 -9.59375 7.40625 -9.0625 C 8.875 -8.363281 9.878906 -7.660156 10.421875 -6.953125 C 10.972656 -6.242188 11.25 -5.378906 11.25 -4.359375 Z M 11.25 -4.359375 "/></g></g></g><g fill="#000000" fill-opacity="1"><g transform="translate(266.466647, 195.374987)"><g><path d="M 8.03125 0 L 4.703125 0 L 4.703125 -12.9375 L 0.4375 -12.9375 L 0.4375 -15.703125 L 12.296875 -15.703125 L 12.296875 -12.9375 L 8.03125 -12.9375 Z M 8.03125 0 "/></g></g></g><g fill="#000000" fill-opacity="1"><g transform="translate(279.204607, 195.374987)"><g><path d="M 5.3125 -8.734375 L 6.375 -8.734375 C 7.425781 -8.734375 8.203125 -8.90625 8.703125 -9.25 C 9.210938 -9.601562 9.46875 -10.160156 9.46875 -10.921875 C 9.46875 -11.660156 9.207031 -12.1875 8.6875 -12.5 C 8.175781 -12.820312 7.382812 -12.984375 6.3125 -12.984375 L 5.3125 -12.984375 Z M 5.3125 -6.03125 L 5.3125 0 L 1.984375 0 L 1.984375 -15.703125 L 6.546875 -15.703125 C 8.679688 -15.703125 10.257812 -15.3125 11.28125 -14.53125 C 12.3125 -13.757812 12.828125 -12.582031 12.828125 -11 C 12.828125 -10.070312 12.570312 -9.25 12.0625 -8.53125 C 11.550781 -7.8125 10.832031 -7.25 9.90625 -6.84375 C 12.269531 -3.3125 13.8125 -1.03125 14.53125 0 L 10.828125 0 L 7.078125 -6.03125 Z M 5.3125 -6.03125 "/></g></g></g><g fill="#000000" fill-opacity="1"><g transform="translate(293.725465, 195.374987)"><g><path d="M 6.859375 -9.234375 L 10.140625 -15.703125 L 13.734375 -15.703125 L 8.515625 -6.109375 L 8.515625 0 L 5.203125 0 L 5.203125 -6 L 0 -15.703125 L 3.609375 -15.703125 Z M 6.859375 -9.234375 "/></g></g></g></svg>